<svg xmlns="http://www.w3.org/2000/svg" version="1.1" width="109" height="31" xml:space="preserve" style=""><rect id="backgroundrect" width="100%" height="100%" x="0" y="0" fill="none" stroke="none" style="" class=""/><g class="currentLayer" style=""><title>Layer 1</title><path d="M1.3168920043722796,19.54096012076889 s1.890920431883655,2.55956182412462 5.234501091386262,2.55956182412462 c1.890920431883655,0 3.579242246065489,-0.9088655229617172 3.579242246065489,-2.6950143692455555 c0,-3.705644757712639 -9.522838499408124,-3.03189116540125 -9.522838499408124,-8.489997089782156 c0,-3.066280671675477 2.6337820301236623,-4.582226254376103 6.044895562193543,-4.582226254376103 c1.7220882504654715,0 5.1662647513964135,0.6737535923113895 5.1662647513964135,3.066280671675477 v1.4485702234694866 h-2.1610519221527484 V10.039630815860995 c0,-1.2464441457760693 -1.8233875593163813,-1.7180716603940418 -2.9376799566763925,-1.7180716603940418 c-2.363650539854568,0 -3.78184086376731,0.8085043107736668 -3.78184086376731,2.459200611936569 c0,3.807409623218004 9.522838499408124,2.9315299532131993 9.522838499408124,8.557372449013295 c0,2.829765087707833 -2.5662491575563884,4.750664652453948 -5.943596253342633,4.750664652453948 c-4.424106620578981,0 -6.517625670164457,-2.965217632828768 -6.517625670164457,-2.965217632828768 l1.3168910150618311,-1.5826191152731062 zm15.396791477915755,-16.811555781486465 c0,-0.4716275146179727 -0.2701314902690937,-0.7411289515425278 -0.7428615982400073,-0.7411289515425278 h-1.4181903239127416 v-1.9882749239772552 h2.3974169761382047 c1.451956760196378,0 2.060456080724414,0.505315194233542 2.060456080724414,1.9538854177030278 v11.253088644917508 h1.755854686749108 c0.641562289389097,0 1.451956760196378,-0.20212607769341687 1.9246868681672913,-0.8085043107736668 l4.355870280589133,-5.659530175415666 h2.802614211541845 L24.952693935495383,12.938174916117278 c-0.8441609070909173,1.0443180680826525 -1.2831245787781944,1.213458292819158 -1.2831245787781944,1.213458292819158 v0.06737535923113903 s0.5064965442545506,0.23581375730898643 1.0467595247927373,1.2464441457760693 l3.0734491692335144,5.491793603996477 c0.3038979265527305,0.5719887268060233 0.641562289389097,0.7411289515425278 1.5532560690472879,0.7411289515425278 h0.9116937796581909 v1.987573097318597 h-1.5870225053309244 c-1.6883218141818348,0 -2.1610519221527484,-0.2695014369245558 -2.9376799566763925,-1.6843839807784722 l-3.377347095786244,-6.064484157461156 c-0.37143079912000376,-0.6737535923113895 -1.1818252699272844,-0.7411289515425278 -1.7896211230327443,-0.7411289515425278 h-1.5532560690472879 v8.489997089782156 H16.712980014865458 v-20.956544027518824 zm17.49171746234638,25.974604636921352 c1.4857231964800144,0 2.498716284989115,-1.2127564661605001 3.140278574378213,-2.763091555135352 l1.0129930885091005,-2.3244498934742923 l-5.977362689626268,-14.115839585582254 c-0.2701314902690937,-0.6063782330802505 -0.574029416821824,-0.7748166311580975 -1.1818252699272844,-0.7748166311580975 h-0.3376643628363673 v-1.987573097318597 h1.0467595247927373 c1.5194896327636513,0 1.9922197407345643,0.3368767961556949 2.600015593840025,1.8528223788563194 l4.355870280589133,10.578633225947462 c0.3376643628363673,0.8421919903892362 0.6077958531054611,1.81913469924075 0.6077958531054611,1.81913469924075 h0.06753287256727354 s0.2363650539854572,-0.9769427088515138 0.574029416821824,-1.81913469924075 l4.187038099170949,-10.578633225947462 c0.574029416821824,-1.5159455827006252 1.0805259610763742,-1.8528223788563194 2.6344854975462377,-1.8528223788563194 h1.0467595247927373 v1.987573097318597 h-0.3376643628363673 c-0.6077958531054611,0 -0.9454602159418275,0.1684383980778474 -1.1818252699272844,0.7748166311580975 l-7.328020140971738,17.72112313110684 c-0.8786308107971299,2.156011495396444 -2.600015593840025,3.5379081862934507 -4.863070292266259,3.5379081862934507 c-2.363650539854568,0 -3.681245022338976,-1.6513981278215606 -3.681245022338976,-1.6513981278215606 l1.0805259610763742,-1.6843839807784722 c0.0014069348451515328,0.034389506274227176 1.081932895921526,1.2801318253916392 2.5345931235404793,1.2801318253916392 zm24.143001942800232,-22.60583667536441 c4.929899697410956,0 7.631918067524468,3.60458171886593 7.631918067524468,8.153120293626463 c0,0.505315194233542 -0.10200277627348593,1.5833209419317638 -0.10200277627348593,1.5833209419317638 h-11.88648903926269 c0.3376643628363673,3.032592992059907 2.5662491575563884,4.615913933991671 5.1662647513964135,4.615913933991671 c2.7695512426807847,0 4.829303855982623,-1.9201977380874582 4.829303855982623,-1.9201977380874582 l1.7896211230327443,2.965217632828768 s-2.6337820301236623,2.593951330398847 -6.922822905568097,2.593951330398847 c-5.707231199357176,0 -9.25270700913903,-4.1098969130994725 -9.25270700913903,-8.995312284015698 c0,-5.290369352961718 3.5799457134880646,-8.996014110674356 8.746913932307054,-8.996014110674356 zm3.2408744158065472,6.771925429388116 c-0.06753287256727354,-2.0549484565497362 -1.4850197290574387,-3.4698310004036523 -3.2408744158065472,-3.4698310004036523 c-2.1955218258589606,0 -3.748777894906249,1.3138195050072088 -4.2215080028771625,3.4698310004036523 h7.462382418683709 zm8.542204912337509,-1.9882749239772552 c0,-0.505315194233542 -0.2701314902690937,-0.7411289515425278 -0.7428615982400073,-0.7411289515425278 h-1.3513609187680435 V6.502424456226201 h3.9513765126080704 c1.5194896327636513,0 2.262351231003658,0.7074412719269587 2.262351231003658,1.9201977380874582 v0.505315194233542 c0,0.37056447577126406 -0.06753287256727354,0.7411289515425278 -0.06753287256727354,0.7411289515425278 h0.06753287256727354 c0.7428615982400073,-1.4485702234694866 2.600015593840025,-3.5708940392503608 6.0786619984771795,-3.5708940392503608 c3.816310767473521,0 6.011129125909907,1.987573097318597 6.011129125909907,6.53611167207913 v6.7045500701569765 c0,0.4716275146179727 0.2701314902690937,0.7418307782011856 0.7428615982400073,0.7418307782011856 h1.3513609187680435 v3.60458171886593 h-4.086442257742616 c-1.6214924090371372,0 -2.2968211347098713,-0.6737535923113895 -2.2968211347098713,-2.2914640405173796 V13.510163642923306 c0,-2.0893379628239632 -0.5402629805381877,-3.5042205066778798 -2.7013149026909353,-3.5042205066778798 c-2.2968211347098713,0 -4.018909385175341,1.4485702234694866 -4.6267052382808025,3.5042205066778798 c-0.2363650539854572,0.7074412719269587 -0.3369608954137916,1.4822579030850553 -0.3369608954137916,2.2907622138587223 v7.883618856701908 h-4.255274439160799 V10.881822806250229 zm27.62164834743739,-4.7836505054108605 c3.985142948891705,0 5.302033963953535,2.4255129323210003 5.302033963953535,2.4255129323210003 h0.06753287256727354 v-0.4379398350024029 c0,-0.7748166311580975 0.540966447960763,-1.5833209419317638 1.890920431883655,-1.5833209419317638 h3.984439481469129 v3.6382693984815004 h-1.3168910150618311 c-0.4389636716872772,0 -0.7428615982400073,0.23581375730898643 -0.7428615982400073,0.6737535923113895 v11.82507737172353 c0,5.8953439327246535 -4.59223533457459,8.119432614010893 -9.083874827720845,8.119432614010893 c-2.1610519221527484,0 -4.457873056862619,-0.6063782330802505 -6.112428434760816,-1.4822579030850553 l1.3175944824844068,-3.3694697882156013 s2.1265820184465354,1.1460829335880187 4.7617709834153485,1.1460829335880187 c2.600015593840025,0 4.862366824843683,-1.1123952539724493 4.862366824843683,-4.211661778604838 v-0.8085043107736668 c0,-0.4042521553868338 0.03376643628363673,-0.9095673496203749 0.03376643628363673,-0.9095673496203749 h-0.06753287256727354 c-1.0129930885091005,1.4485702234694866 -2.499419752411691,2.224088681286241 -4.794833952276409,2.224088681286241 c-4.930603164833534,0 -7.733217376375378,-3.9758480212958514 -7.733217376375378,-8.69282499413423 s2.6668449989847227,-8.556670622354638 7.6312146001018935,-8.556670622354638 zm5.031902473684442,8.591060128628865 c0,-3.9084726620647126 -1.958453304450928,-4.952790730147365 -4.289040875444435,-4.952790730147365 c-2.600015593840025,0 -4.018909385175341,1.886510058471889 -4.018909385175341,4.7836505054108605 c0,2.9989053124443377 1.5194896327636513,5.222292167071921 4.289040875444435,5.222292167071921 c2.060456080724414,0.000701826658657698 4.018909385175341,-1.1790687865449307 4.018909385175341,-5.0531519423354165 z" fill="#ffffff" id="svg_1" class="" fill-opacity="1"/></g></svg>